<svg xmlns="http://www.w3.org/2000/svg" height="1200" width="1600" version="1.1" xmlns:xlink="http://www.w3.org/1999/xlink" xmlns:svgjs="http://svgjs.com/svgjs"><rect fill="#effaff" width="1600" height="1200"></rect><g><path d="M1110.4 269.17L864.33 269.17C829.88 269.17 801.74 300.9 801.74 339.74" stroke="#333333" stroke-width="2" stroke-linecap="round" stroke-linejoin="round" opacity="1" fill="none"></path><path d="M884.36 340.76L694.57 340.76" stroke="#333333" stroke-width="2" stroke-linecap="round" stroke-linejoin="round" opacity="1" fill="none"></path><path d="M661.93 340.76H627.7" stroke="#333333" stroke-width="2" stroke-linecap="round" stroke-linejoin="round" opacity="1" fill="none"></path></g><g><path d="M1179.91 954.22H1288.3" stroke="#333333" stroke-width="2" stroke-linecap="round" stroke-linejoin="round" opacity="1" fill="none"></path><path d="M1047.32 954.22H1145.71" stroke="#333333" stroke-width="2" stroke-linecap="round" stroke-linejoin="round" opacity="1" fill="none"></path><path d="M433.04 356.98C433.04 389.61 457.24 416.18 486.97 416.18H621.14C649.81 416.18 672.96 441.6 672.96 473.08 672.96 504.56 696.11 529.97 724.79 529.97L1104.67 529.97C1156.23 529.97 1198.32 575.89 1198.32 632.79 1198.32 689.39 1156.49 735.6 1104.67 735.6L297.56 735.6C242.57 735.6 197.85 784.7 197.85 845.06 197.85 905.42 242.57 954.51 297.56 954.51L1009.7 954.51" stroke="#333333" stroke-width="2" stroke-linecap="round" stroke-linejoin="round" opacity="1" fill="none"></path></g><g><path d="M842.91 311.49C842.91 343.1 822.41 368.82 797.03 368.82 771.76 368.82 751.14 343.1 751.14 311.49H842.91Z" fill="#78c7e0" stroke="#333333" stroke-width="2" stroke-linecap="round" stroke-linejoin="round" opacity="1"></path><path d="M741.28 311.49H852.88" stroke="#333333" stroke-width="2" stroke-linecap="round" stroke-linejoin="round" opacity="1" fill="none"></path><path d="M760.66 391.14C768.93 377.55 782.18 368.71 797.03 368.71 822.41 368.71 842.91 394.32 842.91 425.93H751.14C751.14 418.45 752.39 411.31 754.43 404.63" fill="#78c7e0" opacity="1" stroke-width="2" stroke="none"></path><path d="M760.66 391.14C768.93 377.55 782.18 368.71 797.03 368.71 822.41 368.71 842.91 394.32 842.91 425.93H751.14C751.14 418.45 752.39 411.31 754.43 404.63" stroke="#333333" stroke-width="2" stroke-linecap="round" stroke-linejoin="round" opacity="1" fill="none"></path><path d="M852.88 426.04H741.28" stroke="#333333" stroke-width="2" stroke-linecap="round" stroke-linejoin="round" opacity="1" fill="none"></path><path d="M751.25 311.49C751.25 327.47 756.47 341.97 764.85 352.28 778.56 343.67 793.51 351.15 801.67 355.34 815.95 363.05 826.48 355.23 827.16 354.43 836.68 343.9 842.8 328.6 842.8 311.38L751.25 311.49Z" fill="#abedd8" stroke="#333333" stroke-width="2" stroke-linecap="round" stroke-linejoin="round" opacity="1"></path></g><g><path d="M928.49 407.27V469.07H1221.34V178.16H928.49V290.84 407.27Z" fill="#46cdcf" stroke="#333333" stroke-width="2" stroke-linecap="round" stroke-linejoin="round" opacity="1"></path><path d="M1074.56 469.07V617.41" stroke="#333333" stroke-width="2" stroke-linecap="round" stroke-linejoin="round" opacity="1" fill="none"></path></g><g><path d="M998.2 316.45C996.59 316.45 995.31 317.74 995.31 319.35V344.91C995.31 346.52 996.59 347.8 998.2 347.8 999.81 347.8 1001.1 346.52 1001.1 344.91V336.23C1001.1 335.3 1001.78 334.62 1002.71 334.62H1005.66C1006.58 334.62 1007.27 335.3 1007.27 336.23V346.49C1007.27 348.1 1008.55 349.38 1010.16 349.38H1016.34C1017.95 349.38 1019.23 348.1 1019.23 346.49V328.14H1111.26C1113.86 337.42 1122.36 344.28 1132.5 344.28 1144.67 344.28 1154.48 334.47 1154.48 322.3 1154.48 310.19 1144.58 300.32 1132.5 300.32 1122.39 300.32 1113.86 307.18 1111.26 316.45H998.2Z" fill="#abedd8" stroke="#333333" stroke-width="2" stroke-linecap="round" stroke-linejoin="round" opacity="1"></path><path d="M1147.05 319.5C1147.5 320.33 1147.74 321.31 1147.74 322.3 1147.74 325.49 1145.14 328.14 1141.89 328.14 1138.64 328.14 1136.05 325.55 1136.05 322.3 1136.05 319.11 1138.64 316.45 1141.89 316.45 1142.73 316.45 1143.5 316.6 1144.19 316.9" stroke="#333333" stroke-width="2" stroke-linecap="round" stroke-linejoin="round" opacity="1" fill="none"></path></g><g><path d="M453.04 696.54L466.25 664.19C482.51 624.57 521.12 598.65 563.97 598.65H578.36L578.19 599.67C582.76 598.99 587.51 598.65 592.25 598.65H660.84C696.57 598.65 725.53 627.61 725.53 663.35V890.29H652.54L661.52 903.83V904C661.52 904 661.52 904 661.52 904.17L580.39 953.46H580.22L537.38 890.29H486.06L486.06 814.75 461.67 778.85C445.08 754.8 441.86 723.81 453.04 696.54Z" fill="#ffffff" stroke="#333333" stroke-width="2" stroke-linecap="round" stroke-linejoin="round" opacity="1"></path><path d="M694.2 576.13C694.2 576.13 649.49 531.59 595.97 560.89 584.97 566.98 561.09 587.48 566.68 623.72 575.31 648.95 598.51 667.75 626.8 669.44 656.94 671.31 683.7 653.19 694.37 626.6 696.91 620.16 698.6 613.05 698.94 605.77 699.62 595.44 697.93 585.27 694.2 576.13Z" fill="#ffffff" stroke="#333333" stroke-width="2" stroke-linecap="round" stroke-linejoin="round" opacity="1"></path><path d="M666.43 598.82L665.07 620.84" stroke="#333333" stroke-width="2" stroke-linecap="round" stroke-linejoin="round" opacity="1" fill="none"></path><path d="M646.78 619.65C646.44 624.73 650.34 628.97 655.25 629.31 660.33 629.65 664.56 625.75 664.9 620.84" stroke="#333333" stroke-width="2" stroke-linecap="round" stroke-linejoin="round" opacity="1" fill="none"></path><path d="M635.27 533.62C608.17 531.93 583.95 546.32 571.59 568.51 566.85 577.15 563.8 586.8 563.12 597.3 562.61 604.58 563.46 611.86 565.15 618.64 565.66 620.33 566.17 622.19 566.68 623.89 583.27 624.9 597.5 612.37 598.51 595.77L600.04 570.37 694.2 576.3C684.72 552.59 662.36 535.31 635.27 533.62Z" fill="#48466d" stroke="#333333" stroke-width="2" stroke-linecap="round" stroke-linejoin="round" opacity="1"></path><path d="M560.92 750.4C576.5 750.4 589.03 737.86 589.03 722.28" stroke="#333333" stroke-width="2" stroke-linecap="round" stroke-linejoin="round" opacity="1" fill="none"></path><path d="M652.71 890.46L560.92 750.4" stroke="#333333" stroke-width="2" stroke-linecap="round" stroke-linejoin="round" opacity="1" fill="none"></path><path d="M485.89 814.92L537.21 890.46" stroke="#333333" stroke-width="2" stroke-linecap="round" stroke-linejoin="round" opacity="1" fill="none"></path></g><g><path d="M403.86 1037.49H520.91C542.7 1037.49 560.13 1020.64 560.13 1000.24 560.13 984.86 573.21 972.74 589.08 972.74H708.93C757.8 972.74 797.34 935.19 797.34 888.77H403.86V1037.49Z" fill="#3d84a8" stroke="#333333" stroke-width="2" stroke-linecap="round" stroke-linejoin="round" opacity="1"></path><path d="M606.52 972.74H496.01" stroke="#333333" stroke-width="2" stroke-linecap="round" stroke-linejoin="round" opacity="1" fill="none"></path><path d="M476.39 972.74H458.34" stroke="#333333" stroke-width="2" stroke-linecap="round" stroke-linejoin="round" opacity="1" fill="none"></path></g><g><path d="M1123.05 728.27H920.48L978.77 588.05H1181.35L1123.05 728.27Z" fill="#abedd8" opacity="1" stroke-width="2" stroke="none"></path><path d="M1140.34 686.79L1123.05 728.27H1078.17" stroke="#333333" stroke-width="2" stroke-linecap="round" stroke-linejoin="round" opacity="1" fill="none"></path><path d="M1070.05 728.27H1060.31" stroke="#333333" stroke-width="2" stroke-linecap="round" stroke-linejoin="round" opacity="1" fill="none"></path><path d="M1060.31 728.27H965.36" stroke="#333333" stroke-width="2" stroke-linecap="round" stroke-linejoin="round" opacity="1" fill="none"></path><path d="M965.36 728.27H920.48L937.67 686.79" stroke="#333333" stroke-width="2" stroke-linecap="round" stroke-linejoin="round" opacity="1" fill="none"></path><path d="M948.54 660.81L961.48 629.53" stroke="#333333" stroke-width="2" stroke-linecap="round" stroke-linejoin="round" opacity="1" fill="none"></path><path d="M961.48 629.53L978.77 588.05H1023.65" stroke="#333333" stroke-width="2" stroke-linecap="round" stroke-linejoin="round" opacity="1" fill="none"></path><path d="M1031.78 588.05H1041.51" stroke="#333333" stroke-width="2" stroke-linecap="round" stroke-linejoin="round" opacity="1" fill="none"></path><path d="M1041.51 588.05H1136.47" stroke="#333333" stroke-width="2" stroke-linecap="round" stroke-linejoin="round" opacity="1" fill="none"></path><path d="M1136.47 588.05H1181.35L1164.15 629.53" stroke="#333333" stroke-width="2" stroke-linecap="round" stroke-linejoin="round" opacity="1" fill="none"></path><path d="M1153.29 655.52L1140.34 686.79" stroke="#333333" stroke-width="2" stroke-linecap="round" stroke-linejoin="round" opacity="1" fill="none"></path><path d="M1053.13 665.44C1060.08 665.44 1065.7 659.81 1065.7 652.87 1065.7 645.93 1060.08 640.3 1053.13 640.3 1046.2 640.3 1040.57 645.93 1040.57 652.87 1040.57 659.81 1046.2 665.44 1053.13 665.44Z" fill="#46cdcf" stroke="#333333" stroke-width="2" stroke-linecap="round" stroke-linejoin="round" opacity="1"></path><path d="M853.11 735.92H1127.49V717.69H871.34C861.23 717.69 853.11 725.91 853.11 735.92Z" fill="#abedd8" stroke="#333333" stroke-width="2" stroke-linecap="round" stroke-linejoin="round" opacity="1"></path></g><g><path d="M780.75 845.2H1221.28V734.78L780.75 734.78V845.2Z" fill="#78c7e0" stroke="#333333" stroke-width="2" stroke-linecap="round" stroke-linejoin="round" opacity="1"></path></g><g><path d="M1354.39 879.07V499.19H1394.02L1358.98 465.6 1351.73 458.66 1333.69 442.1 1273.5 499.19H1313.14V1004.59H1354.39V951.29" fill="#48466d" opacity="1" stroke-width="2" stroke="none"></path><path d="M1354.39 879.07V499.19H1394.02L1358.98 465.6 1351.73 458.66 1333.69 442.1 1273.5 499.19H1313.14V1004.59H1354.39V951.29" stroke="#333333" stroke-width="2" stroke-linecap="round" stroke-linejoin="round" opacity="1" fill="none"></path><path d="M1354.39 898.62V933.32" stroke="#333333" stroke-width="2" stroke-linecap="round" stroke-linejoin="round" opacity="1" fill="none"></path></g></svg>