<svg xmlns="http://www.w3.org/2000/svg" height="1200" width="1600" version="1.1" xmlns:xlink="http://www.w3.org/1999/xlink" xmlns:svgjs="http://svgjs.com/svgjs"><rect fill="#effaff" width="1600" height="1200"></rect><g><path d="M1359.66 464.16C1348.55 431.02 1330.9 400.66 1306.24 376.27 1218.6 289.41 1081.63 283.13 971.17 315.04 935.01 325.53 900.3 341.49 867.06 359.5 839.08 374.63 811.88 391.19 783.22 404.57 750.66 418.16 717.03 427.83 682.52 433.49 647.13 437.71 611.45 437.92 576.06 433.7 544.28 428.25 513.48 417.34 481.69 412.29 444.36 406.43 406.83 407.66 371.24 422.79 337.32 437.1 306.12 457.78 281.46 486.7 255.43 517.27 236.61 553.19 225.89 592.61 205.03 669.79 215.17 756.14 249.29 827.46 266.74 863.79 294.42 896.62 327.96 917 367.25 941.09 412.97 947.57 456.84 935.63 498.75 924.1 538.24 899.09 576.84 878.82 619.54 856.59 670.04 817.17 718.88 815.94 757 814.91 794.92 837.14 830.11 850.11 872.03 865.65 916.09 872.13 960.45 871.51 999.74 870.9 1038.93 866.26 1077.83 861.43 1175.7 849.49 1275.63 827.67 1337.24 738.54 1391.63 659.81 1400.02 551.44 1359.66 464.16Z" fill="#deeff7" opacity="1" stroke-width="2" stroke="none"></path></g><g><path d="M277.32 968.48H523.07" stroke="#333333" stroke-width="2" stroke-linecap="round" stroke-linejoin="round" opacity="1" fill="none"></path><path d="M537.27 968.48H700.69" stroke="#333333" stroke-width="2" stroke-linecap="round" stroke-linejoin="round" opacity="1" fill="none"></path><path d="M1085.12 1006.9H1212.57C1223.2 1006.9 1231.73 998.36 1231.73 987.73 1231.73 977.11 1223.2 968.57 1212.57 968.57" stroke="#333333" stroke-width="2" stroke-linecap="round" stroke-linejoin="round" opacity="1" fill="none"></path><path d="M928.23 1033.64H1024.67C1039.39 1033.64 1051.41 1021.71 1051.41 1006.9" stroke="#333333" stroke-width="2" stroke-linecap="round" stroke-linejoin="round" opacity="1" fill="none"></path><path d="M857.49 1033.64H907.06" stroke="#333333" stroke-width="2" stroke-linecap="round" stroke-linejoin="round" opacity="1" fill="none"></path><path d="M1071.53 1006.9L988.43 1006.9" stroke="#333333" stroke-width="2" stroke-linecap="round" stroke-linejoin="round" opacity="1" fill="none"></path><path d="M791.38 1006.9H610.09" stroke="#333333" stroke-width="2" stroke-linecap="round" stroke-linejoin="round" opacity="1" fill="none"></path><path d="M594.24 1006.9H571.59" stroke="#333333" stroke-width="2" stroke-linecap="round" stroke-linejoin="round" opacity="1" fill="none"></path><path d="M433.6 1006.9H353.46" stroke="#333333" stroke-width="2" stroke-linecap="round" stroke-linejoin="round" opacity="1" fill="none"></path><path d="M448.41 1006.9H541.1C548.68 1006.9 554.69 1013 554.69 1020.49 554.69 1028.07 548.59 1034.08 541.1 1034.08H494.32" stroke="#333333" stroke-width="2" stroke-linecap="round" stroke-linejoin="round" opacity="1" fill="none"></path><path d="M529.08 1061.34H482.3C474.72 1061.34 468.71 1055.25 468.71 1047.75 468.71 1040.18 474.81 1034.16 482.3 1034.16" stroke="#333333" stroke-width="2" stroke-linecap="round" stroke-linejoin="round" opacity="1" fill="none"></path><path d="M542.41 1061.34H594.24" stroke="#333333" stroke-width="2" stroke-linecap="round" stroke-linejoin="round" opacity="1" fill="none"></path><path d="M610.09 1061.34H660.62" stroke="#333333" stroke-width="2" stroke-linecap="round" stroke-linejoin="round" opacity="1" fill="none"></path><path d="M715.15 968.48L1322.68 968.48" stroke="#333333" stroke-width="2" stroke-linecap="round" stroke-linejoin="round" opacity="1" fill="none"></path></g><g><path d="M530.82 828.6H402.44" stroke="#333333" stroke-width="2" stroke-linecap="round" stroke-linejoin="round" opacity="1" fill="none"></path><path d="M594.89 828.6H554.4" stroke="#333333" stroke-width="2" stroke-linecap="round" stroke-linejoin="round" opacity="1" fill="none"></path><path d="M501.01 775.2H453.62" stroke="#333333" stroke-width="2" stroke-linecap="round" stroke-linejoin="round" opacity="1" fill="none"></path><path d="M363.06 775.2H276.07" stroke="#333333" stroke-width="2" stroke-linecap="round" stroke-linejoin="round" opacity="1" fill="none"></path><path d="M276.07 775.2C259.83 775.2 246.7 762.07 246.7 745.83 246.7 729.59 259.83 716.46 276.07 716.46 292.31 716.46 305.44 729.59 305.44 745.83" stroke="#333333" stroke-width="2" stroke-linecap="round" stroke-linejoin="round" opacity="1" fill="none"></path><path d="M530.82 887.33H320.57" stroke="#333333" stroke-width="2" stroke-linecap="round" stroke-linejoin="round" opacity="1" fill="none"></path><path d="M320.57 887.33C304.33 887.33 291.2 900.46 291.2 916.7 291.2 932.94 304.33 946.07 320.57 946.07 336.81 946.07 349.94 932.94 349.94 916.7" stroke="#333333" stroke-width="2" stroke-linecap="round" stroke-linejoin="round" opacity="1" fill="none"></path></g><g><path d="M561.15 762.32H515.12V859.68H561.15V762.32Z" fill="#46cdcf" stroke="#333333" stroke-width="2" stroke-linecap="round" stroke-linejoin="round" opacity="1"></path><path d="M550.37 920.95H614.02 984.3 1074.38V886.4L550.37 872.69V920.95Z" fill="#78c7e0" stroke="#333333" stroke-width="2" stroke-linecap="round" stroke-linejoin="round" opacity="1"></path><path d="M1039.97 784.56H953.66L870.15 701.05H860.22 850.29 550.37V886.4H1074.38V818.97C1074.1 799.95 1058.86 784.56 1039.97 784.56Z" fill="#abedd8" stroke="#333333" stroke-width="2" stroke-linecap="round" stroke-linejoin="round" opacity="1"></path><path d="M936.32 969.21C962.97 969.21 984.58 947.6 984.58 920.95 984.58 894.3 962.97 872.69 936.32 872.69 909.67 872.69 888.06 894.3 888.06 920.95 888.06 947.6 909.67 969.21 936.32 969.21Z" fill="#46cdcf" stroke="#333333" stroke-width="2" stroke-linecap="round" stroke-linejoin="round" opacity="1"></path><path d="M936.32 937.6C945.51 937.6 952.96 930.14 952.96 920.95 952.96 911.76 945.51 904.3 936.32 904.3 927.13 904.3 919.67 911.76 919.67 920.95 919.67 930.14 927.13 937.6 936.32 937.6Z" fill="#46cdcf" stroke="#333333" stroke-width="2" stroke-linecap="round" stroke-linejoin="round" opacity="1"></path><path d="M662.28 969.21C688.93 969.21 710.54 947.6 710.54 920.95 710.54 894.3 688.93 872.69 662.28 872.69 635.62 872.69 614.02 894.3 614.02 920.95 614.02 947.6 635.62 969.21 662.28 969.21Z" fill="#46cdcf" stroke="#333333" stroke-width="2" stroke-linecap="round" stroke-linejoin="round" opacity="1"></path><path d="M662.28 937.6C671.47 937.6 678.93 930.14 678.93 920.95 678.93 911.76 671.47 904.3 662.28 904.3 653.09 904.3 645.64 911.76 645.64 920.95 645.64 930.14 653.09 937.6 662.28 937.6Z" fill="#46cdcf" stroke="#333333" stroke-width="2" stroke-linecap="round" stroke-linejoin="round" opacity="1"></path><path d="M710.26 920.95H888.06" stroke="#333333" stroke-width="2" stroke-linecap="round" stroke-linejoin="round" opacity="1" fill="none"></path><path d="M800.91 631.81L792.52 623.69" stroke="#333333" stroke-width="2" stroke-linecap="round" stroke-linejoin="round" opacity="1" fill="none"></path><path d="M857.42 688.6L808.04 639.08" stroke="#333333" stroke-width="2" stroke-linecap="round" stroke-linejoin="round" opacity="1" fill="none"></path><path d="M1074.38 886.4H1084.88" stroke="#333333" stroke-width="2" stroke-linecap="round" stroke-linejoin="round" opacity="1" fill="none"></path><path d="M953.38 784.56H591.08" stroke="#333333" stroke-width="2" stroke-linecap="round" stroke-linejoin="round" opacity="1" fill="none"></path><path d="M748.87 770.85V722.73" stroke="#333333" stroke-width="2" stroke-linecap="round" stroke-linejoin="round" opacity="1" fill="none"></path><path d="M748.87 867.37V784.56" stroke="#333333" stroke-width="2" stroke-linecap="round" stroke-linejoin="round" opacity="1" fill="none"></path><path d="M916.31 799.67V842.34" stroke="#333333" stroke-width="2" stroke-linecap="round" stroke-linejoin="round" opacity="1" fill="none"></path><path d="M655.15 722.73H860.22L921.49 784.28" stroke="#333333" stroke-width="2" stroke-linecap="round" stroke-linejoin="round" opacity="1" fill="none"></path><path d="M591.08 722.73H639.34" stroke="#333333" stroke-width="2" stroke-linecap="round" stroke-linejoin="round" opacity="1" fill="none"></path></g><g><path d="M1151.98 728.86C1108.98 728.86 1074.12 694 1074.12 651 1074.12 608.01 1108.98 573.15 1151.98 573.15 1194.97 573.15 1229.83 608.01 1229.83 651 1229.83 694 1194.97 728.86 1151.98 728.86Z" fill="#48466d" stroke="#333333" stroke-width="2" stroke-linecap="round" stroke-linejoin="round" opacity="1"></path><path d="M1151.98 967.38V653.48" stroke="#333333" stroke-width="2" stroke-linecap="round" stroke-linejoin="round" opacity="1" fill="none"></path><path d="M1123.46 661.66L1151.98 689.93 1180.49 661.66" stroke="#333333" stroke-width="2" stroke-linecap="round" stroke-linejoin="round" opacity="1" fill="none"></path><path d="M1241.98 880.6C1217.06 880.6 1196.86 860.39 1196.86 835.48 1196.86 810.56 1217.06 790.35 1241.98 790.35 1266.9 790.35 1287.11 810.56 1287.11 835.48 1287.11 860.39 1266.9 880.6 1241.98 880.6Z" fill="#3d84a8" stroke="#333333" stroke-width="2" stroke-linecap="round" stroke-linejoin="round" opacity="1"></path><path d="M1241.98 967.38V835.48" stroke="#333333" stroke-width="2" stroke-linecap="round" stroke-linejoin="round" opacity="1" fill="none"></path></g><g><path d="M1261.69 475.16L1275.43 461.42H1316.45C1327.06 461.42 1335.7 452.85 1335.7 442.17 1335.7 431.55 1327.13 422.92 1316.45 422.92H1275.43L1221.96 369.45H1175.16L1218.15 412.3 1223.39 417.68 1228.63 422.92H1195.77L1169.24 396.38H1149.72V422.92 461.55H1228.63L1175.16 515.02H1221.96L1255.84 481.15" fill="#abedd8" opacity="1" stroke-width="2" stroke="none"></path><path d="M1261.69 475.16L1275.43 461.42H1316.45C1327.06 461.42 1335.7 452.85 1335.7 442.17 1335.7 431.55 1327.13 422.92 1316.45 422.92H1275.43L1221.96 369.45H1175.16L1218.15 412.3 1223.39 417.68 1228.63 422.92H1195.77L1169.24 396.38H1149.72V422.92 461.55H1228.63L1175.16 515.02H1221.96L1255.84 481.15" stroke="#333333" stroke-width="2" stroke-linecap="round" stroke-linejoin="round" opacity="1" fill="none"></path><path d="M1275.43 422.98H1228.63" stroke="#333333" stroke-width="2" stroke-linecap="round" stroke-linejoin="round" opacity="1" fill="none"></path><path d="M1303.53 435.3H1290.4" stroke="#333333" stroke-width="2" stroke-linecap="round" stroke-linejoin="round" opacity="1" fill="none"></path><path d="M1276.79 435.3H1263.59" stroke="#333333" stroke-width="2" stroke-linecap="round" stroke-linejoin="round" opacity="1" fill="none"></path><path d="M1249.99 435.3H1236.93" stroke="#333333" stroke-width="2" stroke-linecap="round" stroke-linejoin="round" opacity="1" fill="none"></path><path d="M1223.32 435.3H1210.13" stroke="#333333" stroke-width="2" stroke-linecap="round" stroke-linejoin="round" opacity="1" fill="none"></path><path d="M1135.64 396.38H1044.14" stroke="#333333" stroke-width="2" stroke-linecap="round" stroke-linejoin="round" opacity="1" fill="none"></path><path d="M1275.43 461.55H1255.77" stroke="#333333" stroke-width="2" stroke-linecap="round" stroke-linejoin="round" opacity="1" fill="none"></path><path d="M1135.64 421.83H1099.92" stroke="#333333" stroke-width="2" stroke-linecap="round" stroke-linejoin="round" opacity="1" fill="none"></path><path d="M1135.64 438.09H1070.2" stroke="#333333" stroke-width="2" stroke-linecap="round" stroke-linejoin="round" opacity="1" fill="none"></path><path d="M1035.16 396.38H1027.47" stroke="#333333" stroke-width="2" stroke-linecap="round" stroke-linejoin="round" opacity="1" fill="none"></path></g></svg>